<svg width="24" height="24" viewBox="0 0 24 24" fill="none" xmlns="http://www.w3.org/2000/svg">
<path d="M18.8906 4.40625H18.0469V3H16.6406V4.40625H7.35938V3H5.95312V4.40625H5.10938C3.94627 4.40625 3 5.35252 3 6.51562V18.8906C3 20.0537 3.94627 21 5.10938 21H18.8906C20.0537 21 21 20.0537 21 18.8906V6.51562C21 5.35252 20.0537 4.40625 18.8906 4.40625ZM19.5938 18.8906C19.5938 19.2783 19.2783 19.5938 18.8906 19.5938H5.10938C4.72167 19.5938 4.40625 19.2783 4.40625 18.8906V9.60938H19.5938V18.8906ZM19.5938 8.20312H4.40625V6.51562C4.40625 6.12792 4.72167 5.8125 5.10938 5.8125H5.95312V7.21875H7.35938V5.8125H16.6406V7.21875H18.0469V5.8125H18.8906C19.2783 5.8125 19.5938 6.12792 19.5938 6.51562V8.20312Z" fill="#8B879A"/>
<path d="M5.67188 11.0859H7.07812V12.4922H5.67188V11.0859ZM8.48438 11.0859H9.89062V12.4922H8.48438V11.0859ZM11.2969 11.0859H12.7031V12.4922H11.2969V11.0859ZM14.1094 11.0859H15.5156V12.4922H14.1094V11.0859ZM16.9219 11.0859H18.3281V12.4922H16.9219V11.0859ZM5.67188 13.8984H7.07812V15.3047H5.67188V13.8984ZM8.48438 13.8984H9.89062V15.3047H8.48438V13.8984ZM11.2969 13.8984H12.7031V15.3047H11.2969V13.8984ZM14.1094 13.8984H15.5156V15.3047H14.1094V13.8984ZM5.67188 16.7109H7.07812V18.1172H5.67188V16.7109ZM8.48438 16.7109H9.89062V18.1172H8.48438V16.7109ZM11.2969 16.7109H12.7031V18.1172H11.2969V16.7109ZM14.1094 16.7109H15.5156V18.1172H14.1094V16.7109ZM16.9219 13.8984H18.3281V15.3047H16.9219V13.8984Z" fill="#8B879A"/>
</svg>
