<svg width="12" height="12" viewBox="0 0 12 12" fill="none" xmlns="http://www.w3.org/2000/svg">
<path d="M9.15011 2.855C9.10385 2.80865 9.04891 2.77188 8.98842 2.74678C8.92794 2.72169 8.8631 2.70878 8.79761 2.70878C8.73213 2.70878 8.66729 2.72169 8.6068 2.74678C8.54631 2.77188 8.49137 2.80865 8.44511 2.855L6.00011 5.295L3.55511 2.85C3.50882 2.80371 3.45387 2.76699 3.39338 2.74194C3.3329 2.71689 3.26808 2.70399 3.20261 2.70399C3.13715 2.70399 3.07232 2.71689 3.01184 2.74194C2.95136 2.76699 2.8964 2.80371 2.85011 2.85C2.80382 2.89629 2.7671 2.95125 2.74205 3.01173C2.717 3.07221 2.7041 3.13704 2.7041 3.2025C2.7041 3.26797 2.717 3.33279 2.74205 3.39327C2.7671 3.45375 2.80382 3.50871 2.85011 3.555L5.29511 6L2.85011 8.445C2.80382 8.49129 2.7671 8.54625 2.74205 8.60673C2.717 8.66721 2.7041 8.73203 2.7041 8.7975C2.7041 8.86297 2.717 8.92779 2.74205 8.98827C2.7671 9.04875 2.80382 9.10371 2.85011 9.15C2.8964 9.19629 2.95136 9.23301 3.01184 9.25806C3.07232 9.28312 3.13715 9.29601 3.20261 9.29601C3.26808 9.29601 3.3329 9.28312 3.39338 9.25806C3.45387 9.23301 3.50882 9.19629 3.55511 9.15L6.00011 6.705L8.44511 9.15C8.4914 9.19629 8.54636 9.23301 8.60684 9.25806C8.66732 9.28312 8.73215 9.29601 8.79761 9.29601C8.86308 9.29601 8.9279 9.28312 8.98838 9.25806C9.04886 9.23301 9.10382 9.19629 9.15011 9.15C9.1964 9.10371 9.23312 9.04875 9.25817 8.98827C9.28323 8.92779 9.29612 8.86297 9.29612 8.7975C9.29612 8.73203 9.28323 8.66721 9.25817 8.60673C9.23312 8.54625 9.1964 8.49129 9.15011 8.445L6.70511 6L9.15011 3.555C9.34011 3.365 9.34011 3.045 9.15011 2.855Z" fill="#6993A3"/>
</svg>
