<svg width="49" height="48" viewBox="0 0 49 48" fill="none" xmlns="http://www.w3.org/2000/svg">
<rect x="0.5" width="48" height="48" rx="24" fill="#FFEDEB"/>
<path d="M32.375 15H28.25V14.25C28.25 13.0073 27.2427 12 26 12H23C21.7573 12 20.75 13.0073 20.75 14.25V15H16.625C15.5895 15 14.75 15.8395 14.75 16.875V18.375C14.75 18.7892 15.0858 19.125 15.5 19.125H33.5C33.9142 19.125 34.25 18.7892 34.25 18.375V16.875C34.25 15.8395 33.4105 15 32.375 15ZM22.25 14.25C22.25 13.8366 22.5866 13.5 23 13.5H26C26.4134 13.5 26.75 13.8366 26.75 14.25V15H22.25V14.25ZM16.1733 20.625C16.1416 20.625 16.1102 20.6314 16.0811 20.6439C16.0519 20.6564 16.0256 20.6747 16.0037 20.6976C15.9818 20.7206 15.9648 20.7478 15.9537 20.7775C15.9426 20.8072 15.9377 20.8389 15.9392 20.8705L16.558 33.8569C16.6152 35.0588 17.6023 36 18.8052 36H30.1948C31.3977 36 32.3848 35.0588 32.442 33.8569L33.0608 20.8705C33.0623 20.8389 33.0574 20.8072 33.0463 20.7775C33.0352 20.7478 33.0182 20.7206 32.9963 20.6976C32.9744 20.6747 32.9481 20.6564 32.9189 20.6439C32.8898 20.6314 32.8584 20.625 32.8267 20.625H16.1733ZM27.5 22.5C27.5 22.0856 27.8356 21.75 28.25 21.75C28.6644 21.75 29 22.0856 29 22.5V32.25C29 32.6644 28.6644 33 28.25 33C27.8356 33 27.5 32.6644 27.5 32.25V22.5ZM23.75 22.5C23.75 22.0856 24.0856 21.75 24.5 21.75C24.9144 21.75 25.25 22.0856 25.25 22.5V32.25C25.25 32.6644 24.9144 33 24.5 33C24.0856 33 23.75 32.6644 23.75 32.25V22.5ZM20 22.5C20 22.0856 20.3356 21.75 20.75 21.75C21.1644 21.75 21.5 22.0856 21.5 22.5V32.25C21.5 32.6644 21.1644 33 20.75 33C20.3356 33 20 32.6644 20 32.25V22.5Z" fill="url(#paint0_linear_25_263)"/>
<defs>
<linearGradient id="paint0_linear_25_263" x1="16.7071" y1="12" x2="36.0366" y2="13.4822" gradientUnits="userSpaceOnUse">
<stop stop-color="#FE7B7B"/>
<stop offset="1" stop-color="#FF450A"/>
</linearGradient>
</defs>
</svg>
