<svg width="17" height="16" viewBox="0 0 17 16" fill="none" xmlns="http://www.w3.org/2000/svg">
<path d="M8.3335 5C8.88578 5 9.3335 4.55228 9.3335 4C9.3335 3.44772 8.88578 3 8.3335 3C7.78121 3 7.3335 3.44772 7.3335 4C7.3335 4.55228 7.78121 5 8.3335 5Z" fill="#0A0226"/>
<path d="M8.3335 9C8.88578 9 9.3335 8.55228 9.3335 8C9.3335 7.44772 8.88578 7 8.3335 7C7.78121 7 7.3335 7.44772 7.3335 8C7.3335 8.55228 7.78121 9 8.3335 9Z" fill="#0A0226"/>
<path d="M8.3335 13C8.88578 13 9.3335 12.5523 9.3335 12C9.3335 11.4477 8.88578 11 8.3335 11C7.78121 11 7.3335 11.4477 7.3335 12C7.3335 12.5523 7.78121 13 8.3335 13Z" fill="#0A0226"/>
</svg>
