<svg width="17" height="16" viewBox="0 0 17 16" fill="none" xmlns="http://www.w3.org/2000/svg">
<g clip-path="url(#clip0_25_864)">
<path d="M14.8887 2.22222H2.44428C1.97279 2.22222 1.5206 2.40952 1.1872 2.74292C0.853805 3.07632 0.666504 3.5285 0.666504 4L0.666504 8H16.6665V4C16.6665 3.5285 16.4792 3.07632 16.1458 2.74292C15.8124 2.40952 15.3602 2.22222 14.8887 2.22222Z" fill="#DC1F26"/>
<path d="M16.6665 12C16.6665 12.4715 16.4792 12.9237 16.1458 13.2571C15.8124 13.5905 15.3602 13.7778 14.8887 13.7778H2.44428C1.97279 13.7778 1.5206 13.5905 1.1872 13.2571C0.853805 12.9237 0.666504 12.4715 0.666504 12V8H16.6665V12Z" fill="#EEEEEE"/>
</g>
<defs>
<clipPath id="clip0_25_864">
<rect width="16" height="16" fill="white" transform="translate(0.666504)"/>
</clipPath>
</defs>
</svg>
