<svg width="17" height="16" viewBox="0 0 17 16" fill="none" xmlns="http://www.w3.org/2000/svg">
<g clip-path="url(#clip0_25_770)">
<path d="M0.333496 12C0.333496 12.4715 0.520797 12.9237 0.854195 13.2571C1.18759 13.5905 1.63978 13.7778 2.11127 13.7778H14.5557C15.0272 13.7778 15.4794 13.5905 15.8128 13.2571C16.1462 12.9237 16.3335 12.4715 16.3335 12V9.77778H0.333496V12Z" fill="#138808"/>
<path d="M16.3335 6.22222V4C16.3335 3.5285 16.1462 3.07632 15.8128 2.74292C15.4794 2.40952 15.0272 2.22222 14.5557 2.22222H2.11127C1.63978 2.22222 1.18759 2.40952 0.854195 2.74292C0.520797 3.07632 0.333496 3.5285 0.333496 4L0.333496 6.22222H16.3335Z" fill="#FF9933"/>
<path d="M0.333496 6.07422H16.3335V9.92622H0.333496V6.07422Z" fill="#F7F7F7"/>
<path d="M8.33344 9.77778C9.31528 9.77778 10.1112 8.98184 10.1112 8C10.1112 7.01816 9.31528 6.22222 8.33344 6.22222C7.3516 6.22222 6.55566 7.01816 6.55566 8C6.55566 8.98184 7.3516 9.77778 8.33344 9.77778Z" fill="#000080"/>
<path d="M8.3335 9.5C9.16192 9.5 9.8335 8.82843 9.8335 8C9.8335 7.17157 9.16192 6.5 8.3335 6.5C7.50507 6.5 6.8335 7.17157 6.8335 8C6.8335 8.82843 7.50507 9.5 8.3335 9.5Z" fill="#F7F7F7"/>
<path d="M8.3778 7.44444L8.33335 7.73333L8.28891 7.44444L8.33335 6.57777L8.3778 7.44444ZM7.96536 6.62622L8.14669 7.47466L8.26447 7.74222L8.23247 7.452L7.96536 6.62622ZM7.62224 6.76844L8.01691 7.54088L8.20002 7.76888L8.09424 7.49644L7.62224 6.76844ZM7.32758 6.99422L7.90891 7.63866L8.14491 7.81155L7.97202 7.57555L7.32758 6.99422ZM7.1018 7.28888L7.8298 7.76089L8.10224 7.86666L7.87424 7.68355L7.1018 7.28888ZM6.95958 7.632L7.78536 7.89911L8.07558 7.93111L7.80802 7.81333L6.95958 7.632ZM6.91113 8L7.7778 8.04444L8.06669 8L7.7778 7.95555L6.91113 8ZM6.95958 8.368L7.80802 8.18666L8.07558 8.06889L7.78536 8.10088L6.95958 8.368ZM7.1018 8.71111L7.87424 8.31644L8.10224 8.13333L7.8298 8.23911L7.1018 8.71111ZM7.32758 9.00577L7.97202 8.42444L8.14491 8.18844L7.90891 8.36133L7.32758 9.00577ZM7.62224 9.23155L8.09424 8.50355L8.20002 8.23111L8.01691 8.45911L7.62224 9.23155ZM7.96536 9.37377L8.23247 8.548L8.26447 8.25777L8.14669 8.52533L7.96536 9.37377ZM8.33335 9.42222L8.3778 8.55555L8.33335 8.26666L8.28891 8.55555L8.33335 9.42222ZM8.70135 9.37377L8.52002 8.52533L8.40224 8.25777L8.43424 8.548L8.70135 9.37377ZM9.04447 9.23155L8.6498 8.45911L8.46669 8.23111L8.57247 8.50355L9.04447 9.23155ZM9.33913 9.00577L8.7578 8.36133L8.5218 8.18844L8.69469 8.42444L9.33913 9.00577ZM9.56491 8.71111L8.83691 8.23911L8.56447 8.13333L8.79247 8.31644L9.56491 8.71111ZM9.70713 8.368L8.88135 8.10088L8.59113 8.06889L8.85869 8.18666L9.70713 8.368ZM9.75558 8L8.88891 7.95555L8.60002 8L8.88891 8.04444L9.75558 8ZM9.70713 7.632L8.85869 7.81333L8.59113 7.93111L8.88135 7.89911L9.70713 7.632ZM9.56491 7.28888L8.79247 7.68355L8.56447 7.86666L8.83691 7.76089L9.56491 7.28888ZM9.33913 6.99422L8.69469 7.57555L8.5218 7.81155L8.7578 7.63866L9.33913 6.99422ZM9.04447 6.76844L8.57247 7.49644L8.46669 7.76888L8.6498 7.54088L9.04447 6.76844ZM8.70135 6.62622L8.43424 7.452L8.40224 7.74222L8.52002 7.47466L8.70135 6.62622Z" fill="#6666B3"/>
<path d="M8.1382 6.604C8.1873 6.604 8.22709 6.5642 8.22709 6.51511C8.22709 6.46602 8.1873 6.42622 8.1382 6.42622C8.08911 6.42622 8.04932 6.46602 8.04932 6.51511C8.04932 6.5642 8.08911 6.604 8.1382 6.604Z" fill="#000080"/>
<path d="M7.76028 6.70533C7.80937 6.70533 7.84916 6.66554 7.84916 6.61645C7.84916 6.56735 7.80937 6.52756 7.76028 6.52756C7.71118 6.52756 7.67139 6.56735 7.67139 6.61645C7.67139 6.66554 7.71118 6.70533 7.76028 6.70533Z" fill="#000080"/>
<path d="M7.42141 6.90045C7.4705 6.90045 7.5103 6.86065 7.5103 6.81156C7.5103 6.76247 7.4705 6.72267 7.42141 6.72267C7.37232 6.72267 7.33252 6.76247 7.33252 6.81156C7.33252 6.86065 7.37232 6.90045 7.42141 6.90045Z" fill="#000080"/>
<path d="M7.14504 7.17689C7.19413 7.17689 7.23393 7.1371 7.23393 7.088C7.23393 7.03891 7.19413 6.99911 7.14504 6.99911C7.09595 6.99911 7.05615 7.03891 7.05615 7.088C7.05615 7.1371 7.09595 7.17689 7.14504 7.17689Z" fill="#000080"/>
<path d="M6.95022 7.51555C6.99931 7.51555 7.03911 7.47576 7.03911 7.42666C7.03911 7.37757 6.99931 7.33778 6.95022 7.33778C6.90112 7.33778 6.86133 7.37757 6.86133 7.42666C6.86133 7.47576 6.90112 7.51555 6.95022 7.51555Z" fill="#000080"/>
<path d="M6.84865 7.89334C6.89775 7.89334 6.93754 7.85354 6.93754 7.80445C6.93754 7.75536 6.89775 7.71556 6.84865 7.71556C6.79956 7.71556 6.75977 7.75536 6.75977 7.80445C6.75977 7.85354 6.79956 7.89334 6.84865 7.89334Z" fill="#000080"/>
<path d="M6.84865 8.28444C6.89775 8.28444 6.93754 8.24465 6.93754 8.19556C6.93754 8.14646 6.89775 8.10667 6.84865 8.10667C6.79956 8.10667 6.75977 8.14646 6.75977 8.19556C6.75977 8.24465 6.79956 8.28444 6.84865 8.28444Z" fill="#000080"/>
<path d="M6.95022 8.66222C6.99931 8.66222 7.03911 8.62242 7.03911 8.57333C7.03911 8.52424 6.99931 8.48444 6.95022 8.48444C6.90112 8.48444 6.86133 8.52424 6.86133 8.57333C6.86133 8.62242 6.90112 8.66222 6.95022 8.66222Z" fill="#000080"/>
<path d="M7.14504 9.00089C7.19413 9.00089 7.23393 8.96109 7.23393 8.912C7.23393 8.86291 7.19413 8.82311 7.14504 8.82311C7.09595 8.82311 7.05615 8.86291 7.05615 8.912C7.05615 8.96109 7.09595 9.00089 7.14504 9.00089Z" fill="#000080"/>
<path d="M7.42141 9.27733C7.4705 9.27733 7.5103 9.23754 7.5103 9.18844C7.5103 9.13935 7.4705 9.09956 7.42141 9.09956C7.37232 9.09956 7.33252 9.13935 7.33252 9.18844C7.33252 9.23754 7.37232 9.27733 7.42141 9.27733Z" fill="#000080"/>
<path d="M7.76028 9.47245C7.80937 9.47245 7.84916 9.43265 7.84916 9.38356C7.84916 9.33447 7.80937 9.29467 7.76028 9.29467C7.71118 9.29467 7.67139 9.33447 7.67139 9.38356C7.67139 9.43265 7.71118 9.47245 7.76028 9.47245Z" fill="#000080"/>
<path d="M8.1382 9.57378C8.1873 9.57378 8.22709 9.53398 8.22709 9.48489C8.22709 9.4358 8.1873 9.396 8.1382 9.396C8.08911 9.396 8.04932 9.4358 8.04932 9.48489C8.04932 9.53398 8.08911 9.57378 8.1382 9.57378Z" fill="#000080"/>
<path d="M8.52932 9.57378C8.57841 9.57378 8.61821 9.53398 8.61821 9.48489C8.61821 9.4358 8.57841 9.396 8.52932 9.396C8.48023 9.396 8.44043 9.4358 8.44043 9.48489C8.44043 9.53398 8.48023 9.57378 8.52932 9.57378Z" fill="#000080"/>
<path d="M8.90676 9.47245C8.95585 9.47245 8.99565 9.43265 8.99565 9.38356C8.99565 9.33447 8.95585 9.29467 8.90676 9.29467C8.85767 9.29467 8.81787 9.33447 8.81787 9.38356C8.81787 9.43265 8.85767 9.47245 8.90676 9.47245Z" fill="#000080"/>
<path d="M9.24563 9.27733C9.29472 9.27733 9.33452 9.23754 9.33452 9.18844C9.33452 9.13935 9.29472 9.09956 9.24563 9.09956C9.19654 9.09956 9.15674 9.13935 9.15674 9.18844C9.15674 9.23754 9.19654 9.27733 9.24563 9.27733Z" fill="#000080"/>
<path d="M9.52199 9.00089C9.57109 9.00089 9.61088 8.96109 9.61088 8.912C9.61088 8.86291 9.57109 8.82311 9.52199 8.82311C9.4729 8.82311 9.43311 8.86291 9.43311 8.912C9.43311 8.96109 9.4729 9.00089 9.52199 9.00089Z" fill="#000080"/>
<path d="M9.71731 8.66222C9.7664 8.66222 9.8062 8.62242 9.8062 8.57333C9.8062 8.52424 9.7664 8.48444 9.71731 8.48444C9.66822 8.48444 9.62842 8.52424 9.62842 8.57333C9.62842 8.62242 9.66822 8.66222 9.71731 8.66222Z" fill="#000080"/>
<path d="M9.81838 8.28444C9.86747 8.28444 9.90727 8.24465 9.90727 8.19556C9.90727 8.14646 9.86747 8.10667 9.81838 8.10667C9.76929 8.10667 9.72949 8.14646 9.72949 8.19556C9.72949 8.24465 9.76929 8.28444 9.81838 8.28444Z" fill="#000080"/>
<path d="M9.81838 7.89334C9.86747 7.89334 9.90727 7.85354 9.90727 7.80445C9.90727 7.75536 9.86747 7.71556 9.81838 7.71556C9.76929 7.71556 9.72949 7.75536 9.72949 7.80445C9.72949 7.85354 9.76929 7.89334 9.81838 7.89334Z" fill="#000080"/>
<path d="M9.71731 7.51555C9.7664 7.51555 9.8062 7.47576 9.8062 7.42666C9.8062 7.37757 9.7664 7.33778 9.71731 7.33778C9.66822 7.33778 9.62842 7.37757 9.62842 7.42666C9.62842 7.47576 9.66822 7.51555 9.71731 7.51555Z" fill="#000080"/>
<path d="M9.52199 7.17689C9.57109 7.17689 9.61088 7.1371 9.61088 7.088C9.61088 7.03891 9.57109 6.99911 9.52199 6.99911C9.4729 6.99911 9.43311 7.03891 9.43311 7.088C9.43311 7.1371 9.4729 7.17689 9.52199 7.17689Z" fill="#000080"/>
<path d="M9.24563 6.90045C9.29472 6.90045 9.33452 6.86065 9.33452 6.81156C9.33452 6.76247 9.29472 6.72267 9.24563 6.72267C9.19654 6.72267 9.15674 6.76247 9.15674 6.81156C9.15674 6.86065 9.19654 6.90045 9.24563 6.90045Z" fill="#000080"/>
<path d="M8.90676 6.70533C8.95585 6.70533 8.99565 6.66554 8.99565 6.61645C8.99565 6.56735 8.95585 6.52756 8.90676 6.52756C8.85767 6.52756 8.81787 6.56735 8.81787 6.61645C8.81787 6.66554 8.85767 6.70533 8.90676 6.70533Z" fill="#000080"/>
<path d="M8.52932 6.604C8.57841 6.604 8.61821 6.5642 8.61821 6.51511C8.61821 6.46602 8.57841 6.42622 8.52932 6.42622C8.48023 6.42622 8.44043 6.46602 8.44043 6.51511C8.44043 6.5642 8.48023 6.604 8.52932 6.604Z" fill="#000080"/>
<path d="M8.33359 8.4C8.55451 8.4 8.73359 8.22091 8.73359 8C8.73359 7.77908 8.55451 7.6 8.33359 7.6C8.11268 7.6 7.93359 7.77908 7.93359 8C7.93359 8.22091 8.11268 8.4 8.33359 8.4Z" fill="#000080"/>
</g>
<defs>
<clipPath id="clip0_25_770">
<rect width="16" height="16" fill="white" transform="translate(0.333496)"/>
</clipPath>
</defs>
</svg>
