<svg width="33" height="32" viewBox="0 0 33 32" fill="none" xmlns="http://www.w3.org/2000/svg">
<path d="M25.8332 2.66667H7.1665C4.96117 2.66667 3.1665 4.46133 3.1665 6.66667V25.3333C3.1665 27.5387 4.96117 29.3333 7.1665 29.3333H25.8332C28.0385 29.3333 29.8332 27.5387 29.8332 25.3333V6.66667C29.8332 4.46133 28.0385 2.66667 25.8332 2.66667Z" fill="url(#paint0_linear_42_2263)"/>
<path d="M23.4732 18.356C22.9897 18.5885 22.4589 18.7053 21.9225 18.6973C20.7372 18.6973 19.5838 18.2093 18.9092 17.4227L16.1132 14.1733C15.1798 13.0827 13.8612 12.4573 12.4998 12.4573C11.1385 12.4573 9.81984 13.0827 8.88784 14.172L3.1665 20.8387V25.3333C3.1665 27.5387 4.96117 29.3333 7.1665 29.3333H25.8332C28.0385 29.3333 29.8332 27.5387 29.8332 25.3333V15.176L23.4732 18.356Z" fill="url(#paint1_linear_42_2263)"/>
<path d="M21.833 14.6667C24.0421 14.6667 25.833 12.8758 25.833 10.6667C25.833 8.45753 24.0421 6.66667 21.833 6.66667C19.6239 6.66667 17.833 8.45753 17.833 10.6667C17.833 12.8758 19.6239 14.6667 21.833 14.6667Z" fill="url(#paint2_linear_42_2263)"/>
<defs>
<linearGradient id="paint0_linear_42_2263" x1="3.1665" y1="16" x2="29.8332" y2="16" gradientUnits="userSpaceOnUse">
<stop stop-color="#9CE4FE"/>
<stop offset="1" stop-color="#9BDEF4"/>
</linearGradient>
<linearGradient id="paint1_linear_42_2263" x1="5.84294" y1="12.4573" x2="31.8534" y2="16.3362" gradientUnits="userSpaceOnUse">
<stop stop-color="#01C0FC"/>
<stop offset="1" stop-color="#00B1FD"/>
</linearGradient>
<linearGradient id="paint2_linear_42_2263" x1="18.6359" y1="6.66666" x2="26.5422" y2="7.41281" gradientUnits="userSpaceOnUse">
<stop stop-color="#01C0FC"/>
<stop offset="1" stop-color="#00B1FD"/>
</linearGradient>
</defs>
</svg>
