<svg width="100" height="30" viewBox="0 0 100 30" fill="none" xmlns="http://www.w3.org/2000/svg">
<path d="M9.33758 2.90909C11.2621 -0.424243 16.0733 -0.424248 17.9978 2.90909L26.6581 17.9091C28.5826 21.2424 26.177 25.4091 22.328 25.4091H5.00747C1.15846 25.4091 -1.24717 21.2424 0.677331 17.9091L9.33758 2.90909Z" fill="url(#paint0_linear_40_1036)"/>
<path d="M42.9887 24.4091V6.95454H47.2075V20.983H54.4688V24.4091H42.9887Z" fill="url(#paint1_linear_40_1036)"/>
<path d="M62.7636 24.6562C61.3886 24.6562 60.2068 24.375 59.2181 23.8125C58.2352 23.2443 57.4767 22.4545 56.9426 21.4432C56.4142 20.4261 56.15 19.2472 56.15 17.9062C56.15 16.5597 56.4142 15.3807 56.9426 14.3693C57.4767 13.3523 58.2352 12.5625 59.2181 12C60.2068 11.4318 61.3886 11.1477 62.7636 11.1477C64.1386 11.1477 65.3176 11.4318 66.3005 12C67.2892 12.5625 68.0477 13.3523 68.5761 14.3693C69.1102 15.3807 69.3772 16.5597 69.3772 17.9062C69.3772 19.2472 69.1102 20.4261 68.5761 21.4432C68.0477 22.4545 67.2892 23.2443 66.3005 23.8125C65.3176 24.375 64.1386 24.6562 62.7636 24.6562ZM62.7892 21.5114C63.2892 21.5114 63.7125 21.358 64.0591 21.0511C64.4056 20.7443 64.6698 20.3182 64.8517 19.7727C65.0392 19.2273 65.1329 18.5966 65.1329 17.8807C65.1329 17.1534 65.0392 16.517 64.8517 15.9716C64.6698 15.4261 64.4056 15 64.0591 14.6932C63.7125 14.3864 63.2892 14.233 62.7892 14.233C62.2721 14.233 61.8346 14.3864 61.4767 14.6932C61.1244 15 60.8545 15.4261 60.667 15.9716C60.4852 16.517 60.3943 17.1534 60.3943 17.8807C60.3943 18.5966 60.4852 19.2273 60.667 19.7727C60.8545 20.3182 61.1244 20.7443 61.4767 21.0511C61.8346 21.358 62.2721 21.5114 62.7892 21.5114Z" fill="url(#paint2_linear_40_1036)"/>
<path d="M77.6144 29.5909C76.3701 29.5909 75.3048 29.4176 74.4184 29.071C73.5321 28.7244 72.836 28.25 72.3304 27.6477C71.8247 27.0454 71.5207 26.3636 71.4184 25.6023L75.3644 25.3807C75.4383 25.6477 75.5747 25.8807 75.7735 26.0795C75.9781 26.2784 76.2423 26.4318 76.5661 26.5398C76.8957 26.6477 77.2821 26.7017 77.7252 26.7017C78.4241 26.7017 79.0008 26.5312 79.4554 26.1903C79.9156 25.8551 80.1457 25.267 80.1457 24.4261V22.125H80.0008C79.836 22.5284 79.586 22.8892 79.2508 23.2074C78.9156 23.5256 78.498 23.7756 77.998 23.9574C77.5037 24.1392 76.9355 24.2301 76.2934 24.2301C75.3389 24.2301 74.4639 24.0085 73.6684 23.5653C72.8787 23.1165 72.2451 22.4233 71.7679 21.4858C71.2963 20.5426 71.0605 19.3295 71.0605 17.8466C71.0605 16.3182 71.3048 15.0597 71.7934 14.071C72.2821 13.0767 72.9213 12.3409 73.711 11.8636C74.5065 11.3864 75.3616 11.1477 76.2764 11.1477C76.9639 11.1477 77.5519 11.267 78.0406 11.5057C78.5349 11.7386 78.9411 12.0398 79.2593 12.4091C79.5775 12.7784 79.819 13.1619 79.9838 13.5597H80.1031V11.3182H84.2536V24.4602C84.2536 25.5682 83.9752 26.5028 83.4184 27.2642C82.8616 28.0256 82.0832 28.6023 81.0832 28.9943C80.0832 29.392 78.9269 29.5909 77.6144 29.5909ZM77.7423 21.196C78.248 21.196 78.6798 21.0625 79.0377 20.7955C79.3957 20.5284 79.6713 20.1449 79.8644 19.6449C80.0576 19.1449 80.1542 18.5454 80.1542 17.8466C80.1542 17.1364 80.0576 16.5256 79.8644 16.0142C79.6769 15.4972 79.4014 15.0994 79.0377 14.821C78.6798 14.5426 78.248 14.4034 77.7423 14.4034C77.2252 14.4034 76.7877 14.5454 76.4298 14.8295C76.0718 15.1136 75.7991 15.5142 75.6116 16.0312C75.4298 16.5426 75.3389 17.1477 75.3389 17.8466C75.3389 18.5454 75.4326 19.1449 75.6201 19.6449C75.8076 20.1449 76.0775 20.5284 76.4298 20.7955C76.7877 21.0625 77.2252 21.196 77.7423 21.196Z" fill="url(#paint3_linear_40_1036)"/>
<path d="M93.0214 24.6562C91.6464 24.6562 90.4646 24.375 89.476 23.8125C88.493 23.2443 87.7345 22.4545 87.2004 21.4432C86.672 20.4261 86.4078 19.2472 86.4078 17.9062C86.4078 16.5597 86.672 15.3807 87.2004 14.3693C87.7345 13.3523 88.493 12.5625 89.476 12C90.4646 11.4318 91.6464 11.1477 93.0214 11.1477C94.3964 11.1477 95.5754 11.4318 96.5583 12C97.547 12.5625 98.3055 13.3523 98.8339 14.3693C99.368 15.3807 99.635 16.5597 99.635 17.9062C99.635 19.2472 99.368 20.4261 98.8339 21.4432C98.3055 22.4545 97.547 23.2443 96.5583 23.8125C95.5754 24.375 94.3964 24.6562 93.0214 24.6562ZM93.047 21.5114C93.547 21.5114 93.9703 21.358 94.3169 21.0511C94.6635 20.7443 94.9277 20.3182 95.1095 19.7727C95.297 19.2273 95.3907 18.5966 95.3907 17.8807C95.3907 17.1534 95.297 16.517 95.1095 15.9716C94.9277 15.4261 94.6635 15 94.3169 14.6932C93.9703 14.3864 93.547 14.233 93.047 14.233C92.5299 14.233 92.0924 14.3864 91.7345 14.6932C91.3822 15 91.1123 15.4261 90.9248 15.9716C90.743 16.517 90.6521 17.1534 90.6521 17.8807C90.6521 18.5966 90.743 19.2273 90.9248 19.7727C91.1123 20.3182 91.3822 20.7443 91.7345 21.0511C92.0924 21.358 92.5299 21.5114 93.047 21.5114Z" fill="url(#paint4_linear_40_1036)"/>
<defs>
<linearGradient id="paint0_linear_40_1036" x1="10" y1="0.409077" x2="100" y2="29.4091" gradientUnits="userSpaceOnUse">
<stop stop-color="#016EFC"/>
<stop offset="1" stop-color="#00B1FD"/>
</linearGradient>
<linearGradient id="paint1_linear_40_1036" x1="10" y1="0.409077" x2="100" y2="29.4091" gradientUnits="userSpaceOnUse">
<stop stop-color="#016EFC"/>
<stop offset="1" stop-color="#00B1FD"/>
</linearGradient>
<linearGradient id="paint2_linear_40_1036" x1="10" y1="0.409077" x2="100" y2="29.4091" gradientUnits="userSpaceOnUse">
<stop stop-color="#016EFC"/>
<stop offset="1" stop-color="#00B1FD"/>
</linearGradient>
<linearGradient id="paint3_linear_40_1036" x1="10" y1="0.409077" x2="100" y2="29.4091" gradientUnits="userSpaceOnUse">
<stop stop-color="#016EFC"/>
<stop offset="1" stop-color="#00B1FD"/>
</linearGradient>
<linearGradient id="paint4_linear_40_1036" x1="10" y1="0.409077" x2="100" y2="29.4091" gradientUnits="userSpaceOnUse">
<stop stop-color="#016EFC"/>
<stop offset="1" stop-color="#00B1FD"/>
</linearGradient>
</defs>
</svg>
